<?xml version="1.0" standalone="no"?>
<!DOCTYPE svg PUBLIC "-//W3C//DTD SVG 20010904//EN"
 "http://www.w3.org/TR/2001/REC-SVG-20010904/DTD/svg10.dtd">
<svg version="1.0" xmlns="http://www.w3.org/2000/svg"
 width="469.000000pt" height="463.000000pt" viewBox="0 0 469.000000 463.000000"
 preserveAspectRatio="xMidYMid meet">

<g transform="translate(0.000000,463.000000) scale(0.100000,-0.100000)"
fill="#000000" stroke="none">
<path d="M2023 4589 c-206 -31 -377 -81 -623 -182 -240 -99 -433 -230 -654
-445 -283 -275 -470 -592 -598 -1012 -108 -356 -113 -849 -12 -1231 55 -211
176 -476 295 -649 382 -556 960 -908 1611 -979 143 -16 437 -14 575 4 423 56
828 232 1157 503 399 329 671 798 761 1314 47 267 40 676 -16 908 -123 510
-385 940 -769 1262 -311 261 -695 433 -1136 507 -159 27 -415 27 -591 0z m571
-194 c429 -65 883 -303 1192 -627 244 -256 407 -541 508 -890 46 -157 65 -284
73 -479 23 -586 -182 -1101 -611 -1532 -158 -160 -315 -272 -521 -375 -202
-100 -424 -172 -626 -202 -111 -16 -443 -14 -582 4 -305 39 -650 178 -906 363
-123 90 -359 321 -448 439 -61 81 -103 144 -103 155 0 7 207 103 338 156 174
71 594 183 684 183 17 0 18 -2 3 -31 -32 -61 -205 -513 -205 -534 0 -15 95
-81 191 -134 94 -51 207 -93 359 -133 105 -28 132 -31 322 -35 166 -4 228 -2
309 12 205 34 345 82 514 176 95 52 252 169 261 193 3 8 -25 90 -61 182 -37
93 -89 225 -117 294 -27 69 -56 135 -64 148 l-14 22 -670 0 c-392 0 -722 -4
-797 -11 -151 -12 -346 -47 -531 -94 l-134 -33 7 26 c12 47 189 486 567 1402
72 173 156 378 188 455 54 133 202 482 327 772 67 154 36 139 283 141 104 1
202 -4 264 -13z m-724 -46 c0 -5 -26 -67 -59 -137 -32 -70 -77 -174 -100 -232
-23 -58 -48 -112 -54 -122 -7 -9 -52 -39 -100 -66 -135 -78 -212 -137 -330
-252 -117 -113 -186 -198 -261 -325 -174 -293 -256 -573 -256 -873 0 -166 25
-349 63 -472 14 -44 13 -50 -15 -135 -16 -50 -41 -120 -54 -157 l-25 -67 -96
-51 c-53 -27 -101 -50 -107 -50 -13 0 -87 175 -128 303 -60 185 -80 313 -85
545 -4 166 -2 238 11 330 48 333 153 615 334 892 150 231 322 405 572 580 163
114 416 233 595 280 84 22 95 23 95 9z m-567 -1140 c30 -16 37 -28 37 -66 0
-44 -30 -73 -75 -73 -70 0 -100 76 -50 125 26 27 54 31 88 14z m-104 -276 c12
-10 24 -35 27 -55 5 -30 2 -41 -19 -62 -28 -27 -73 -34 -107 -16 -44 23 -46
114 -3 139 28 16 78 13 102 -6z m-119 -283 c11 -11 20 -31 20 -45 0 -33 -42
-75 -75 -75 -32 0 -75 41 -75 73 0 59 87 90 130 47z m1273 -1139 c29 -11 52
-61 43 -96 -8 -31 -63 -67 -91 -59 -66 20 -89 104 -39 143 29 23 50 26 87 12z
m-314 -217 c28 -35 26 -69 -4 -99 -48 -49 -125 -20 -125 47 0 71 87 106 129
52z m660 0 c29 -37 27 -78 -5 -103 -15 -12 -38 -21 -51 -21 -32 0 -73 42 -73
76 0 68 88 100 129 48z m-324 -159 c54 -53 15 -135 -65 -135 -35 0 -43 4 -60
33 -27 44 -25 63 9 98 38 37 82 39 116 4z"/>
<path d="M2770 3889 c0 -5 36 -98 79 -207 44 -108 103 -258 132 -332 28 -74
110 -281 181 -460 71 -179 179 -453 240 -610 60 -157 126 -325 145 -375 61
-159 133 -336 142 -352 6 -12 18 2 48 58 58 106 107 236 144 379 29 114 32
142 36 320 6 233 -5 310 -71 512 -143 440 -413 756 -830 974 -111 58 -246 109
-246 93z m648 -689 c32 -30 30 -82 -4 -109 -15 -12 -38 -21 -51 -21 -32 0 -73
42 -73 75 0 35 42 75 78 75 15 0 38 -9 50 -20z m132 -270 c26 -26 27 -90 2
-113 -26 -24 -75 -31 -103 -17 -32 17 -39 29 -39 68 0 69 92 110 140 62z m104
-275 c55 -55 1 -142 -71 -114 -15 6 -31 16 -35 22 -13 21 -9 70 9 89 20 22 76
24 97 3z"/>
<path d="M2253 3577 c-34 -83 -146 -363 -248 -622 -103 -258 -211 -531 -241
-605 -30 -75 -54 -141 -54 -148 0 -9 137 -12 603 -12 332 0 606 2 609 5 5 5
-11 45 -82 215 -11 25 -74 187 -141 360 -67 173 -151 389 -186 480 -36 91 -92
236 -126 323 -33 86 -63 157 -66 157 -3 0 -34 -69 -68 -153z m80 -589 c3 -7
55 -131 116 -276 61 -145 111 -268 111 -273 0 -5 -105 -9 -250 -9 -137 0 -250
2 -250 5 0 3 10 25 21 47 12 23 57 132 101 243 44 110 89 217 101 238 21 37
41 47 50 25z"/>
</g>
</svg>
